<svg xmlns="http://www.w3.org/2000/svg" width="19.667" height="19.667" viewBox="0 0 19.667 19.667">
    <path id="Path_299" data-name="Path 299" d="M280.18,252.713a.768.768,0,0,1,0,1.086l-5.154,5.154a.768.768,0,0,1-1.086,0l-2.453-2.454a.768.768,0,0,1,1.086-1.086l1.91,1.91,4.611-4.611A.768.768,0,0,1,280.18,252.713Zm5.487,3.12A9.833,9.833,0,1,1,275.833,246,9.828,9.828,0,0,1,285.667,255.833Zm-1.536,0a8.3,8.3,0,1,0-8.3,8.3A8.292,8.292,0,0,0,284.13,255.833Z" transform="translate(-266 -246)" fill="#21bba6"/>
</svg>
