<svg id="Group_41" data-name="Group 41" xmlns="http://www.w3.org/2000/svg" width="16.438" height="20.628" viewBox="0 0 16.438 20.628">
<g id="Group_38" data-name="Group 38" transform="translate(0 0)">
    <path id="Path_223" data-name="Path 223" d="M103.449,182.92H94.906v-3.313a2.741,2.741,0,0,1,5.479,0v1.54H102v-1.54a4.352,4.352,0,0,0-8.7,0v3.313H91.845a2.42,2.42,0,0,0-2.417,2.417v8.219a2.42,2.42,0,0,0,2.417,2.417h11.6a2.42,2.42,0,0,0,2.417-2.417v-8.219A2.42,2.42,0,0,0,103.449,182.92Zm.806,10.636a.807.807,0,0,1-.806.806h-11.6a.807.807,0,0,1-.806-.806v-8.219a.807.807,0,0,1,.806-.806h11.6a.807.807,0,0,1,.806.806Z" transform="translate(-89.428 -175.346)" fill="#21bba6"></path>
</g>
</svg>