 <svg className="only-light" xmlns="http://www.w3.org/2000/svg" width="21.057" height="21.057" viewBox="0 0 21.057 21.057">
  <g id="Group" transform="translate(-1803.149 -48.149)">
    <g id="Vector" transform="translate(1824.205 60.432) rotate(135)" fill="none" strokeLinejoin="round">
      <path d="M5.7.26A8.973,8.973,0,0,0,.591.5.863.863,0,0,0,.317,1.988,8.661,8.661,0,0,1,2.7,4.979,8.493,8.493,0,0,1,3.55,8.685,8.493,8.493,0,0,1,2.7,12.391,8.661,8.661,0,0,1,.317,15.382a.856.856,0,0,0,.275,1.477,8.78,8.78,0,0,0,2.959.512A8.741,8.741,0,0,0,12.295,7.3,8.742,8.742,0,0,0,5.7.26Z" stroke="none" />
      <path d="M 3.537331581115723 1.499994277954102 L 3.537351608276367 1.499994277954102 C 3.069628715515137 1.499994277954102 2.60672664642334 1.543658256530762 2.152956962585449 1.63020133972168 C 2.928821563720703 2.420853614807129 3.576325416564941 3.336936950683594 4.05437183380127 4.326924324035645 C 4.708061218261719 5.6806640625 5.052501678466797 7.1883544921875 5.050471305847168 8.682924270629883 C 5.052501678466797 10.18156433105469 4.708061218261719 11.68925476074219 4.05437183380127 13.04299449920654 C 3.576883316040039 14.03183460235596 2.930248260498047 14.94702243804932 2.155587196350098 15.73704528808594 C 2.612845420837402 15.82600498199463 3.079180717468262 15.87084484100342 3.550471305847168 15.87084484100342 C 5.743191719055176 15.87084484100342 7.806761741638184 14.92500495910645 9.212051391601562 13.27584457397461 C 10.58174133300781 11.66846466064453 11.15057182312012 9.629034042358398 10.81330108642578 7.530364036560059 C 10.36871147155762 4.729274749755859 8.174831390380859 2.393654823303223 5.352851390838623 1.718144416809082 C 4.750491142272949 1.573404312133789 4.139671325683594 1.500004768371582 3.537331581115723 1.499994277954102 M 3.537352561950684 -1.9073486328125e-06 C 4.243837356567383 0 4.969203948974609 0.08325576782226562 5.70332145690918 0.2596645355224609 C 9.114212036132812 1.076133728027344 11.75433158874512 3.890354156494141 12.29476165771484 7.295224189758301 C 13.16299152374268 12.69783401489258 8.910441398620605 17.3708438873291 3.550471305847168 17.3708438873291 C 2.513911247253418 17.3708438873291 1.512791633605957 17.18843460083008 0.5914011001586914 16.85837364196777 C -0.05533885955810547 16.6412239074707 -0.2059488296508789 15.8073844909668 0.3167619705200195 15.38177490234375 C 1.328941345214844 14.57080459594727 2.144271850585938 13.54907417297363 2.703601837158203 12.39074516296387 C 3.262931823730469 11.23241424560547 3.552211761474609 9.966534614562988 3.550471305847168 8.684964179992676 C 3.552211761474609 7.40339469909668 3.262931823730469 6.137504577636719 2.703601837158203 4.979174613952637 C 2.144271850585938 3.820844650268555 1.328941345214844 2.799124717712402 0.3167619705200195 1.988154411315918 C -0.214808464050293 1.562544822692871 -0.046478271484375 0.7286949157714844 0.5914011001586914 0.5028648376464844 C 1.512052536010742 0.1779251098632812 2.504535675048828 -3.814697265625e-06 3.537352561950684 -1.9073486328125e-06 Z" stroke="none" fill="#494763" />
    </g>
  </g>
</svg>