<svg id="Group_14" data-name="Group 14" xmlns="http://www.w3.org/2000/svg" width="133.333" height="181.824" viewBox="0 0 133.333 181.824">
    <path id="Path_209" data-name="Path 209" d="M186.962,76.953c-1-1.433-3.157-4.142-3.309-4.325C147.185,32.511,138.126,9.114,136.219,2.9a4.085,4.085,0,0,0-7.82,0c-1.907,6.216-10.966,29.616-47.582,69.911,0,0-2.156,2.71-3.157,4.141A66.679,66.679,0,0,0,124.735,181.4a70.1,70.1,0,0,0,7.681.424,65.894,65.894,0,0,0,44.361-17,66.679,66.679,0,0,0,10.185-87.872Zm-15.035,82.454a59.4,59.4,0,0,1-98.715-38.232A59.665,59.665,0,0,1,83.62,81.123c.884-1.262,2.748-3.61,2.741-3.61,28.452-31.3,40.778-53.065,45.948-64.606,5.163,11.534,17.465,33.262,45.806,64.432.011.014,1.974,2.479,2.887,3.784a59.409,59.409,0,0,1-9.076,78.285Z" transform="translate(-65.649)" fill="#7ed5c9"/>
</svg>
