<svg xmlns="http://www.w3.org/2000/svg" width="128.352" height="176.635" viewBox="0 0 128.352 176.635">
    <path id="Path_297" data-name="Path 297" d="M187.311,184.537a64.187,64.187,0,0,0,9.806-84.588h0c-.9-1.287-2.842-3.738-3.158-4.129C157.371,55.56,148.222,31.892,146.289,25.6a1.853,1.853,0,0,0-3.555,0c-1.932,6.3-11.082,29.964-47.669,70.223-.312.385-2.261,2.846-3.158,4.129a64.187,64.187,0,0,0,9.8,84.589,63.079,63.079,0,0,0,42.7,16.364h.2A63.079,63.079,0,0,0,187.311,184.537Zm-42.889,13.531A60.3,60.3,0,0,1,103.6,182.431a61.362,61.362,0,0,1-9.373-80.86c.8-1.15,2.318-3.072,2.931-3.845l-.008.011.127-.153c28.734-31.6,40.668-53.388,45.224-63.561l2.014-4.5,2.013,4.5c4.557,10.174,16.491,31.96,45.224,63.561l.126.151c.614.774,2.127,2.7,2.924,3.836a61.362,61.362,0,0,1-9.374,80.859h0a60.313,60.313,0,0,1-40.831,15.637Z" transform="translate(-80.336 -24.266)" fill="#84d6cc"/>
</svg>
