<svg id="Group_356" data-name="Group 356" xmlns="http://www.w3.org/2000/svg" width="19.667" height="19.667" viewBox="0 0 19.667 19.667">
    <path id="Path_303" data-name="Path 303" d="M9.833,19.667a9.833,9.833,0,1,1,9.833-9.833A9.845,9.845,0,0,1,9.833,19.667Zm0-18.262a8.429,8.429,0,1,0,8.429,8.429A8.438,8.438,0,0,0,9.833,1.4Z" fill="#db2525"/>
    <path id="Path_304" data-name="Path 304" d="M154.013,154.716a.7.7,0,0,1-.5-.206l-7.024-7.024a.7.7,0,0,1,.993-.993l7.024,7.024a.7.7,0,0,1-.5,1.2Z" transform="translate(-140.667 -140.669)" fill="#db2525"/>
    <path id="Path_305" data-name="Path 305" d="M146.989,154.715a.7.7,0,0,1-.5-1.2l7.024-7.024a.7.7,0,0,1,.993.993l-7.024,7.024A.7.7,0,0,1,146.989,154.715Z" transform="translate(-140.667 -140.667)" fill="#db2525"/>
</svg>
