<svg className="only-dark" xmlns="http://www.w3.org/2000/svg" width="18.519" height="18.519" viewBox="0 0 18.519 18.519">
    <path id="Vector" d="M9.259,13.889a4.63,4.63,0,1,1,3.274-1.356A4.63,4.63,0,0,1,9.259,13.889Zm0,1.543a6.173,6.173,0,1,0-4.365-1.808,6.173,6.173,0,0,0,4.365,1.808ZM10.031.772A.772.772,0,1,1,9.8.226.772.772,0,0,1,10.031.772Zm0,16.975A.772.772,0,1,1,9.8,17.2.772.772,0,0,1,10.031,17.747Zm7.716-7.716a.772.772,0,1,1,.546-.226A.772.772,0,0,1,17.747,10.031Zm-16.975,0A.772.772,0,1,1,1.317,9.8.772.772,0,0,1,.772,10.031ZM15.807,3.8a.772.772,0,1,1,.217-.543A.772.772,0,0,1,15.807,3.8Zm-12,12a.772.772,0,1,1,.217-.543.772.772,0,0,1-.217.543Zm10.914,0a.772.772,0,1,1,.543.217A.772.772,0,0,1,14.716,15.807Zm-12-12a.772.772,0,1,1,.543.217A.772.772,0,0,1,2.711,3.8Z" fill="#fff" />
</svg>