<svg xmlns="http://www.w3.org/2000/svg" width="29.819" height="25.182" viewBox="0 0 29.819 25.182">
    <g id="Group_90" data-name="Group 90" transform="translate(-9.838 -28.222)">
        <g id="Group_73" data-name="Group 73" transform="translate(25.504 39.251)">
            <g id="Group_72" data-name="Group 72" transform="translate(0 0)">
                <path id="Path_231" data-name="Path 231" d="M277.3,197.18a7.076,7.076,0,1,0,7.076,7.076A7.084,7.084,0,0,0,277.3,197.18Zm0,13.056a5.98,5.98,0,1,1,5.98-5.98A5.987,5.987,0,0,1,277.3,210.236Z" transform="translate(-270.222 -197.18)" fill="#21bba6"></path>
            </g>
        </g>
        <g id="Group_75" data-name="Group 75" transform="translate(29.292 42.989)">
            <g id="Group_74" data-name="Group 74" transform="translate(0 0)">
                <path id="Path_232" data-name="Path 232" d="M355.109,277.752h-2.193v-2.192a.548.548,0,1,0-1.1,0v2.192h-2.193a.548.548,0,0,0,0,1.1h2.193v2.192a.548.548,0,0,0,1.1,0v-2.192h2.193a.548.548,0,0,0,0-1.1Z" transform="translate(-349.08 -275.011)" fill="#21bba6"></path>
            </g>
        </g>
        <g id="Group_76" data-name="Group 76" transform="translate(9.838 28.222)">
            <path id="Path_234" data-name="Path 234" d="M35.8,35.461a2.1,2.1,0,0,0-2.089-2.089H28.872V31.224a3,3,0,0,0-3-3v.111h0v-.111a3,3,0,0,0-.973.163L10.246,33.4l-.027.011-.014.006-.049.024,0,0-.043.026-.008.006-.038.028-.006.005a.6.6,0,0,0-.111.122l-.007.011-.021.035-.008.014c-.006.012-.012.024-.018.037l-.006.012q-.01.024-.018.049l-.005.018c0,.011-.006.023-.009.034l0,.022c0,.011,0,.023-.005.034s0,.014,0,.021,0,.033,0,.049,0,0,0,.006V51.307A2.094,2.094,0,0,0,11.927,53.4H24.976a.221.221,0,0,0,.059.008H25.2a.607.607,0,1,0,0-1.215H11.927a.885.885,0,0,1-.882-.883V34.578H33.715a.885.885,0,0,1,.882.883v1.347a.6.6,0,0,0,1.207,0V35.461ZM25.87,29.43a1.8,1.8,0,0,1,1.8,1.795v2.147h-13.6l11.225-3.845A1.791,1.791,0,0,1,25.87,29.43Z" transform="translate(-9.838 -28.222)" fill="#21bba6"></path>
        </g>
    </g>
</svg>