<svg xmlns="http://www.w3.org/2000/svg" width="28.252" height="25" viewBox="0 0 28.252 25">
    <g id="Group_91" data-name="Group 91" transform="translate(-232.833 -689.229)" opacity="0.6">
        <g id="Group_81" data-name="Group 81" transform="translate(232.833 689.229)">
            <g id="Group_79" data-name="Group 79" transform="translate(18.007 10.623)">
                <g id="Group_78" data-name="Group 78" transform="translate(0 0)">
                    <path id="Path_235" data-name="Path 235" d="M322.982,201.9h-5.325v-2.065a1.709,1.709,0,0,1,3.415,0h1a2.713,2.713,0,0,0-5.424,0V201.9h-.9a1.508,1.508,0,0,0-1.507,1.507v5.123a1.508,1.508,0,0,0,1.507,1.507h7.232a1.508,1.508,0,0,0,1.507-1.507v-5.123A1.508,1.508,0,0,0,322.982,201.9Zm.5,6.629a.5.5,0,0,1-.5.5H315.75a.5.5,0,0,1-.5-.5v-5.123a.5.5,0,0,1,.5-.5h7.232a.5.5,0,0,1,.5.5Z" transform="translate(-314.243 -197.18)" fill="#494763"></path>
                </g>
            </g>
            <g id="Group_80" data-name="Group 80" transform="translate(0 0)">
                <path id="Path_237" data-name="Path 237" d="M35.638,35.409a2.081,2.081,0,0,0-2.075-2.074H28.75V31.2a2.981,2.981,0,0,0-2.982-2.981v.11h0v-.11a2.979,2.979,0,0,0-.967.162L10.243,33.367l-.027.011-.014.005-.049.024,0,0-.042.026-.008.006-.037.028-.006.005a.6.6,0,0,0-.11.121l-.007.01-.021.035-.008.014c-.006.012-.012.024-.018.036l-.006.012q-.01.024-.018.048l-.005.018c0,.011-.006.022-.009.034l0,.022c0,.011,0,.022-.005.034s0,.014,0,.02,0,.032,0,.049,0,0,0,.005V51.14a2.08,2.08,0,0,0,2.075,2.074H24.879a.219.219,0,0,0,.058.008H25.1a.6.6,0,1,0,0-1.206H11.914a.879.879,0,0,1-.877-.876V34.533H33.562a.879.879,0,0,1,.877.876v1.337a.6.6,0,0,0,1.2,0V35.409Zm-9.87-5.988A1.785,1.785,0,0,1,27.551,31.2v2.132H14.037L25.19,29.517A1.781,1.781,0,0,1,25.767,29.421Z" transform="translate(-9.838 -28.222)" fill="#494763"></path>
            </g>
        </g>
    </g>
</svg>